<svg xmlns="http://www.w3.org/2000/svg" fill="none" viewBox="0 0 399 399">
  <path fill="#000" d="M20.4 103.61 208.3 8.31 385.5 212.34 217.72 381.47 20.4 103.6Z" opacity=".25"/>
  <path fill="#000" d="m19.9 108.64 187.9-95.3L385 217.36 217.2 386.5 19.9 108.64Z" opacity=".25"/>
  <path fill="#000" d="m19.4 113.17 187.9-95.3L384.48 221.9 216.7 391.02 19.39 113.18Z" opacity=".25"/>
  <path fill="#000" d="m18.89 117.7 187.9-95.3 177.2 204.02L216.2 395.56 18.89 117.7Z" opacity=".25"/>
  <path fill="url(#a)" d="M20.4 98.07 208.3 2.77 385.5 206.8 217.72 375.93 20.4 98.07Z"/>
  <path fill="url(#b)" d="m51.25 111.84 158.07-86.59 152 179.21-145.98 133.88-164.09-226.5Z"/>
  <path
    fill="url(#c)"
    d="M91.53 107.8s-9.31-32.62 2.02-39.26c7.3-4.28 8.3-5.28 7.05-9.06-2.24-6.69-18.12-10.07-17.12-25.17 1-15.1 23.83-26.84 37.25-16.1 7.78 6.23 9.4 20.8 28.19 20.13 16.1-.57 37.25-3.02 43.29 6.04 6.04 9.06 2.02 8.05 2.02 8.05L91.53 107.8Zm10.72-85.67c-3.97.21-5.17 5.18-2.65 11.07 2.51 5.9 7.77 10.5 11.75 10.3 3.98-.23 5.17-5.19 2.66-11.09-2.51-5.88-7.78-10.49-11.76-10.28Z"/><path
    fill="url(#d)"
    d="M116.1 32.97c2.71 6.48.92 11.75-3.99 11.75s-11.08-5.27-13.78-11.75c-2.71-6.49-.92-11.74 4-11.74 4.91 0 11.08 5.25 13.78 11.74Zm-13-6.96c-4.53 2.39-4.04 4.24-.87 9.82 3.15 5.53 5.23 5.13 8.68 3.14 4.16-2.4 4.03-4.28.75-9.19-2.72-4.07-5.03-5.63-8.56-3.77Z"/>
  <path
    fill="#000"
    d="m113.95 142.1-14.63-25.15 8.5-4.95a11.87 11.87 0 0 1 5.42-1.8c1.64-.07 3.1.3 4.39 1.1a9.79 9.79 0 0 1 3.22 3.44 9.61 9.61 0 0 1 1.38 4.47 7.4 7.4 0 0 1-1.22 4.33 12.08 12.08 0 0 1-4.23 3.76l-6.88 4-1.6-2.75 6.78-3.94a8.74 8.74 0 0 0 2.9-2.48c.6-.87.87-1.78.82-2.71a6.47 6.47 0 0 0-.95-2.93 6.75 6.75 0 0 0-2.1-2.31 4.45 4.45 0 0 0-2.82-.7 8.44 8.44 0 0 0-3.64 1.28l-5.36 3.12L117 140.32l-3.04 1.77Zm5.26-18.19 12.76 7.7-3.53 2.05-12.67-7.75 3.44-2Zm18.73-29.43 3.04-1.77 9.69 16.65a9.84 9.84 0 0 1-.09 10.47c-1.02 1.62-2.51 3-4.49 4.15a12.65 12.65 0 0 1-5.83 1.85 9.94 9.94 0 0 1-5.26-1.2 10.23 10.23 0 0 1-3.88-3.9l-9.69-16.65 3.05-1.77 9.54 16.4a7.58 7.58 0 0 0 2.72 2.8c1.1.64 2.3.95 3.61.91a8.7 8.7 0 0 0 4.09-1.29 8.72 8.72 0 0 0 3.13-2.9 6.6 6.6 0 0 0 1-3.6 7.58 7.58 0 0 0-1.1-3.75l-9.53-16.4Zm23.75 19.84-14.63-25.15 3.04-1.77 13.06 22.44 11.7-6.8 1.56 2.7-14.73 8.58ZM181.14 103 166.5 77.86l15.17-8.83 1.57 2.7-12.13 7.06 4.95 8.5 11.34-6.6 1.57 2.7-11.34 6.6 4.97 8.54 12.33-7.17 1.57 2.7-15.37 8.94Zm23.44-38.88a4.46 4.46 0 0 0-3.48-1.85 7.95 7.95 0 0 0-4.45 1.2 8.48 8.48 0 0 0-2.61 2.25 5.4 5.4 0 0 0-1.08 2.61 4.12 4.12 0 0 0 2.05 4c.6.29 1.25.44 1.95.47.69.01 1.37-.04 2.04-.16.67-.13 1.28-.26 1.82-.41l2.95-.8c.75-.21 1.62-.4 2.6-.56.99-.17 2-.2 3.04-.11a6.64 6.64 0 0 1 5.46 3.48 7.65 7.65 0 0 1 1.08 4.3 8.41 8.41 0 0 1-1.58 4.42 13.1 13.1 0 0 1-4.36 3.83 13.33 13.33 0 0 1-5.18 1.85 8.62 8.62 0 0 1-4.5-.63 8.02 8.02 0 0 1-3.38-2.88l3.14-1.83c.64.9 1.41 1.5 2.33 1.8a6 6 0 0 0 2.94.13 10 10 0 0 0 3.05-1.19 9.51 9.51 0 0 0 2.8-2.38 6.21 6.21 0 0 0 1.28-2.88c.14-1-.06-1.96-.6-2.88a3.41 3.41 0 0 0-1.88-1.63 5.94 5.94 0 0 0-2.58-.2c-.96.11-1.94.3-2.97.57l-3.61.92c-2.3.58-4.32.68-6.07.3a6.14 6.14 0 0 1-4.12-3.12 7.05 7.05 0 0 1-1-4.35c.16-1.5.71-2.92 1.67-4.25a12.09 12.09 0 0 1 3.84-3.42 11.81 11.81 0 0 1 4.83-1.64c1.6-.16 3.05.04 4.37.61a6.8 6.8 0 0 1 3.16 2.72l-2.95 1.71ZM117.87 178.47l10.97 18.85-2.28 1.33-9.58-16.46-.1.06-2.83 5.74-1.35-2.32 2.89-5.88 2.28-1.32Zm20.48 13.52c-.45.26-.94.33-1.45.2-.52-.14-.9-.44-1.17-.9a1.84 1.84 0 0 1-.2-1.45c.15-.51.44-.9.9-1.16.45-.27.93-.33 1.45-.2.51.14.9.43 1.17.89a2 2 0 0 1 0 1.92c-.16.29-.39.52-.7.7Zm15.19-9.03-2.4 1.4-4.04-22.9 2.35-1.37 17.9 14.83-2.4 1.4-14.87-12.6-.14.09 3.6 19.15Zm-3.4-7.88 9.65-5.62 1.17 2.03-9.65 5.61-1.18-2.02Zm11.05-21.82 10.97 18.86-2.17 1.27-10.97-18.86 2.17-1.27Zm12.88-1.18 1.07 1.84-7.33 4.27-1.07-1.84 7.33-4.27Zm-7.17-.36 2.18-1.27 7.84 13.48c.36.62.71 1.03 1.07 1.23.36.2.71.26 1.05.2.35-.07.68-.2 1-.38.24-.14.43-.27.57-.38l.32-.3 1.58 1.7a5.22 5.22 0 0 1-1.47 1.2c-.61.36-1.3.58-2.03.66a4.13 4.13 0 0 1-2.16-.36 4 4 0 0 1-1.76-1.71l-8.19-14.07Zm15.43-8.04-1.18-2.03 14.14-8.23 1.18 2.03-5.93 3.45 9.8 16.83-2.29 1.33-9.8-16.83-5.92 3.45Zm31.22 4.76a7.7 7.7 0 0 1-4.06 1.15 7 7 0 0 1-3.75-1.22 10.03 10.03 0 0 1-3-3.35 10.17 10.17 0 0 1-1.45-4.3 6.92 6.92 0 0 1 3.52-6.78 7.77 7.77 0 0 1 2.4-.9 6.27 6.27 0 0 1 5.34 1.42c.87.7 1.7 1.7 2.46 3.02l.54.92-10.9 6.35-1.1-1.88 8.7-5.06a5.36 5.36 0 0 0-1.73-1.86 4.17 4.17 0 0 0-4.57-.05 4.51 4.51 0 0 0-1.87 1.95 4.9 4.9 0 0 0-.48 2.5c.06.88.32 1.7.77 2.49l.73 1.25a7.02 7.02 0 0 0 2.13 2.4c.8.51 1.65.77 2.54.77.88 0 1.76-.26 2.64-.77a5.44 5.44 0 0 0 1.4-1.14c.38-.44.64-.92.79-1.44.14-.53.16-1.09.06-1.69l2.44-.63c.2.84.19 1.68-.02 2.53a6.3 6.3 0 0 1-1.2 2.37 8.3 8.3 0 0 1-2.33 1.95Zm2-20.49 6.75 3.81.03-7.75 2.5-1.46-.45 9.73 8.68 4.41-2.5 1.46-6.59-3.52-.2 7.46-2.5 1.46.38-9.69-8.6-4.45 2.5-1.46Zm18.53-10.78 1.07 1.84-7.33 4.26-1.07-1.84 7.33-4.26Zm-7.16-.37 2.17-1.26 7.84 13.48c.36.61.72 1.02 1.08 1.22.36.2.7.26 1.05.2.34-.07.68-.2 1-.38.24-.14.43-.27.56-.38l.33-.29 1.58 1.7a5.21 5.21 0 0 1-1.47 1.2c-.62.36-1.3.57-2.04.65a4.13 4.13 0 0 1-2.16-.36 4 4 0 0 1-1.76-1.71l-8.18-14.07Zm-50.43 94.85a7.13 7.13 0 0 1-3.9 1.04 7.16 7.16 0 0 1-3.72-1.24 9.98 9.98 0 0 1-3.03-3.36 10.1 10.1 0 0 1-1.45-4.33c-.1-1.41.16-2.7.76-3.87a7.12 7.12 0 0 1 2.83-2.86 7.09 7.09 0 0 1 3.88-1.04c1.32.04 2.57.46 3.74 1.25a9.99 9.99 0 0 1 3.06 3.39 9.9 9.9 0 0 1 1.41 4.3c.1 1.4-.15 2.69-.76 3.86a7.07 7.07 0 0 1-2.82 2.86Zm-1.14-1.95a4.32 4.32 0 0 0 1.96-2.14c.34-.86.42-1.79.25-2.77a8.67 8.67 0 0 0-1.08-2.9 8.77 8.77 0 0 0-1.99-2.38 5.14 5.14 0 0 0-2.54-1.17 4.28 4.28 0 0 0-2.83.64 4.28 4.28 0 0 0-1.96 2.15c-.33.86-.41 1.8-.24 2.78.18 1 .54 1.97 1.09 2.91a8.7 8.7 0 0 0 1.98 2.37 5.09 5.09 0 0 0 2.53 1.15c.92.14 1.86-.08 2.83-.64Zm7.92-13.78 4.95 8.51-2.18 1.27-8.22-14.15 2.1-1.22 1.28 2.21.19-.1c-.1-.92.08-1.79.5-2.62a5.43 5.43 0 0 1 2.23-2.18 5.97 5.97 0 0 1 2.85-.87 4.6 4.6 0 0 1 2.7.79 7.6 7.6 0 0 1 2.34 2.63l5.23 9-2.17 1.26-5.14-8.84a4.24 4.24 0 0 0-2.38-2.1 3.55 3.55 0 0 0-2.92.45c-.7.4-1.23.91-1.6 1.53-.37.61-.54 1.3-.52 2.06.03.76.28 1.55.76 2.37Zm25.24-3.3-8.23-14.14 2.17-1.26 8.23 14.14-2.17 1.27Zm-8.5-17.14c-.42.25-.87.32-1.35.2a1.61 1.61 0 0 1-1.05-.77c-.24-.4-.3-.84-.16-1.3.14-.47.42-.83.85-1.07.42-.25.87-.31 1.33-.2.48.1.84.37 1.07.77.24.4.29.84.15 1.3-.14.47-.42.83-.84 1.07Zm14.65 13.57-8.23-14.15 2.1-1.22 1.29 2.21.18-.1a4.1 4.1 0 0 1 .4-2.6 4.95 4.95 0 0 1 2-2 4.68 4.68 0 0 1 2.7-.73c.87.06 1.7.36 2.49.91l.15-.08c-.07-.95.14-1.84.61-2.7a5.74 5.74 0 0 1 2.23-2.16 4.9 4.9 0 0 1 3.8-.62c1.25.32 2.37 1.3 3.34 2.97l5.5 9.47-2.17 1.26-5.5-9.46c-.61-1.05-1.33-1.63-2.17-1.74a3.67 3.67 0 0 0-2.4.5 3.43 3.43 0 0 0-1.79 2.25c-.2.9-.03 1.82.5 2.74l5.36 9.2-2.21 1.3-5.64-9.7c-.47-.8-1.1-1.3-1.91-1.48a3.25 3.25 0 0 0-2.45.42c-.57.33-1 .79-1.32 1.38a3.95 3.95 0 0 0-.46 1.93c.02.7.23 1.4.63 2.1l5.14 8.83-2.17 1.27Zm26.9-15.2c-.9.52-1.82.82-2.74.91-.93.08-1.8-.08-2.6-.47a4.84 4.84 0 0 1-2.02-1.98 4.2 4.2 0 0 1-.67-2.25c.02-.7.22-1.34.58-1.94a7.8 7.8 0 0 1 1.4-1.68c.56-.52 1.15-1.02 1.75-1.49.8-.6 1.45-1.1 1.95-1.46.5-.38.84-.7 1-1 .17-.28.16-.6-.05-.95l-.04-.07a3.34 3.34 0 0 0-1.98-1.69c-.78-.21-1.68-.03-2.68.55a4.52 4.52 0 0 0-2.04 2.1c-.32.8-.46 1.53-.4 2.18l-2.49.46a5.73 5.73 0 0 1 .3-2.86 6.4 6.4 0 0 1 1.44-2.2 9.72 9.72 0 0 1 2-1.55c.46-.27 1.01-.51 1.67-.75a5.8 5.8 0 0 1 2.1-.34c.75 0 1.5.23 2.26.69a6.45 6.45 0 0 1 2.12 2.37l5.42 9.31-2.17 1.27-1.12-1.92-.1.07a4.91 4.91 0 0 1-1.02 3.1 6.11 6.11 0 0 1-1.88 1.59Zm-.81-2.15a5 5 0 0 0 1.88-1.77 3.99 3.99 0 0 0 .06-4.04l-1.16-2c-.03.17-.17.4-.43.67-.25.26-.57.54-.93.85a54.5 54.5 0 0 1-1.92 1.49c-.53.4-.98.82-1.38 1.28-.39.44-.64.9-.75 1.4-.11.5 0 1.02.32 1.57a2.25 2.25 0 0 0 1.83 1.23c.79.05 1.61-.17 2.48-.68Zm20.02-1.99c-1.04.61-2.03 1-2.94 1.17a6.65 6.65 0 0 1-4.49-.64l1.03-2.22c.34.14.76.3 1.26.45.5.16 1.07.21 1.74.16a5.63 5.63 0 0 0 2.3-.83 5.34 5.34 0 0 0 2.33-2.48c.43-.98.3-2.06-.4-3.24l-1.66-2.87-.19.1c0 .35-.05.8-.12 1.36a4.5 4.5 0 0 1-.67 1.73 5.42 5.42 0 0 1-1.94 1.7 6.84 6.84 0 0 1-3.55.99 6.58 6.58 0 0 1-3.51-1.11 9.55 9.55 0 0 1-2.97-3.3 10.11 10.11 0 0 1-1.44-4.23 6.5 6.5 0 0 1 3.3-6.47c.92-.54 1.74-.8 2.46-.82.72-.01 1.34.09 1.85.3.52.22.93.4 1.23.55l.22-.13-1.3-2.25 2.1-1.22 8.46 14.55c.7 1.22 1 2.37.9 3.45a5.46 5.46 0 0 1-1.24 2.97 9.66 9.66 0 0 1-2.75 2.33Zm-4.59-7.73c.87-.5 1.5-1.13 1.86-1.88.37-.75.5-1.59.37-2.52a8.05 8.05 0 0 0-1.1-2.96 8.48 8.48 0 0 0-2.02-2.43 4.68 4.68 0 0 0-2.43-1.04c-.86-.1-1.73.12-2.62.63a4.28 4.28 0 0 0-2.17 4.72 8.4 8.4 0 0 0 1.07 2.88 7.96 7.96 0 0 0 1.98 2.33c.75.57 1.55.9 2.4.97.87.06 1.75-.17 2.66-.7Zm17.53-6.9a7.7 7.7 0 0 1-4.05 1.16 7.01 7.01 0 0 1-3.75-1.22 10.03 10.03 0 0 1-3.01-3.35 10.17 10.17 0 0 1-1.44-4.3 6.92 6.92 0 0 1 3.52-6.78 7.74 7.74 0 0 1 2.4-.9 6.24 6.24 0 0 1 2.66.06c.9.2 1.8.65 2.67 1.35.88.7 1.7 1.7 2.47 3.03l.53.92-10.9 6.34-1.1-1.88 8.7-5.05a5.35 5.35 0 0 0-1.72-1.86 4.18 4.18 0 0 0-4.57-.06 4.51 4.51 0 0 0-1.87 1.96 4.9 4.9 0 0 0-.48 2.5c.06.87.31 1.7.76 2.48l.73 1.25a7 7 0 0 0 2.14 2.4c.8.52 1.64.78 2.53.78.89 0 1.77-.26 2.65-.78a5.45 5.45 0 0 0 1.4-1.13c.37-.44.63-.92.78-1.44.15-.53.17-1.1.07-1.7l2.44-.62c.2.84.19 1.68-.02 2.52a6.29 6.29 0 0 1-1.2 2.38 8.3 8.3 0 0 1-2.34 1.95Zm12.63-22.42-1.63 1.69a4.2 4.2 0 0 0-1.1-.64 3.06 3.06 0 0 0-1.4-.21c-.53.03-1.1.23-1.74.6a4.3 4.3 0 0 0-1.82 1.86c-.34.72-.33 1.39.02 2 .31.53.76.85 1.33.93a5.7 5.7 0 0 0 2.3-.29l2.4-.7a6.7 6.7 0 0 1 3.65-.24c.98.27 1.76.9 2.34 1.88.47.81.66 1.67.56 2.58-.09.9-.44 1.79-1.05 2.64a8.2 8.2 0 0 1-2.57 2.23 7.36 7.36 0 0 1-4.13 1.15 4.82 4.82 0 0 1-3.4-1.7l1.77-1.72c.64.65 1.34 1 2.1 1.07.78.06 1.61-.17 2.5-.7a4.68 4.68 0 0 0 2.04-2.04c.35-.79.35-1.48 0-2.09-.3-.5-.7-.8-1.24-.93a3.81 3.81 0 0 0-2.02.16l-2.68.82a6.5 6.5 0 0 1-3.69.24 4 4 0 0 1-2.32-1.92 4.05 4.05 0 0 1-.56-2.5 5.3 5.3 0 0 1 1.01-2.53c.58-.8 1.37-1.5 2.37-2.08a6.1 6.1 0 0 1 3.83-1c1.16.15 2.2.63 3.13 1.44Z"/>
  <defs>
    <linearGradient id="a" x1="51.33" x2="323.82" y1="92.18" y2="255.94" gradientUnits="userSpaceOnUse"><stop stop-color="#79421C"/><stop offset="1" stop-color="#2E0E04"/></linearGradient>
    <linearGradient id="b" x1="72.13" x2="343.95" y1="132.98" y2="227.62" gradientUnits="userSpaceOnUse"><stop offset=".01" stop-color="#fff"/><stop offset=".22" stop-color="#EEE"/><stop offset=".73" stop-color="#CACACA"/><stop offset="1" stop-color="#BDBDBD"/></linearGradient>
    <linearGradient id="c" x1="141.89" x2="109.68" y1="76.08" y2="22.23" gradientUnits="userSpaceOnUse"><stop offset=".01" stop-color="#212121"/><stop offset=".05" stop-color="#333339"/><stop offset=".13" stop-color="#4F4F5C"/><stop offset=".17" stop-color="#59596A"/><stop offset=".34" stop-color="#70707F"/><stop offset=".7" stop-color="#ABABB3"/><stop offset="1" stop-color="#E0E0E2"/></linearGradient>
    <linearGradient id="d" x1="117.62" x2="98.92" y1="37.45" y2="29.4" gradientUnits="userSpaceOnUse"><stop offset=".01" stop-color="#DBDBDB"/><stop offset=".05" stop-color="#D0D0D0"/><stop offset=".4" stop-color="gray"/><stop offset=".68" stop-color="#464646"/><stop offset=".89" stop-color="#222"/><stop offset="1" stop-color="#141414"/></linearGradient>
  </defs>
</svg>
