<svg width="399" height="399" viewBox="0 0 399 399" fill="none" xmlns="http://www.w3.org/2000/svg">
<path opacity="0.25" d="M20.3989 103.615L208.311 8.3125L385.492 212.335L217.721 381.469L20.3989 103.615Z" fill="black"/>
<path opacity="0.25" d="M19.8918 108.644L207.804 13.3416L384.985 217.364L217.214 386.498L19.8918 108.644Z" fill="black"/>
<path opacity="0.25" d="M19.3931 113.175L207.297 17.8719L384.478 221.886L216.707 391.02L19.3931 113.175Z" fill="black"/>
<path opacity="0.25" d="M18.886 117.705L206.79 22.4022L383.988 226.424L216.208 395.559L18.886 117.705Z" fill="black"/>
<path d="M20.3989 98.0709L208.311 2.76807L385.492 206.798L217.721 375.933L20.3989 98.0709Z" fill="url(#paint0_linear_2_2)"/>
<path d="M51.2549 111.836L209.325 25.2534L361.328 204.463L215.344 338.344L51.2549 111.836Z" fill="url(#paint1_linear_2_2)"/>
<path d="M91.5289 107.805C91.5289 107.805 82.2189 75.1783 93.5489 68.5366C100.847 64.2556 101.853 63.2581 100.598 59.4759C98.3618 52.7927 82.4766 49.4095 83.4824 34.314C84.4883 19.2185 107.314 7.47294 120.731 18.2044C128.511 24.4388 130.124 39.0189 148.918 38.3373C165.011 37.772 186.167 35.3198 192.21 44.3804C198.253 53.4411 194.23 52.4269 194.23 52.4269L91.5289 107.805ZM102.252 22.1279C98.2787 22.344 97.0817 27.3066 99.6004 33.2001C102.111 39.0937 107.373 43.6988 111.346 43.491C115.328 43.2749 116.516 38.3123 114.006 32.4104C111.496 26.5252 106.234 21.9201 102.252 22.1279Z" fill="url(#paint2_linear_2_2)"/>
<path d="M116.109 32.9674C118.811 39.4511 117.015 44.7213 112.111 44.7213C107.198 44.7213 101.03 39.4511 98.3286 32.9674C95.6187 26.4836 97.4142 21.2301 102.327 21.2301C107.24 21.2301 113.407 26.4836 116.109 32.9674ZM103.1 26.0098C98.5696 28.3955 99.0601 30.2492 102.227 35.8269C105.378 41.363 107.456 40.9557 110.914 38.969C115.07 36.575 114.937 34.6881 111.662 29.7837C108.944 25.7106 106.633 24.1478 103.1 26.0098Z" fill="url(#paint3_linear_2_2)"/>
<path d="M113.947 142.092L99.3181 116.948L107.814 112.004C109.779 110.862 111.587 110.259 113.238 110.197C114.884 110.126 116.348 110.496 117.63 111.306C118.912 112.116 119.984 113.262 120.846 114.743C121.708 116.225 122.169 117.715 122.23 119.213C122.291 120.711 121.886 122.152 121.014 123.536C120.138 124.911 118.726 126.165 116.778 127.299L109.903 131.299L108.302 128.549L115.08 124.606C116.422 123.825 117.388 122.999 117.978 122.13C118.576 121.257 118.85 120.352 118.799 119.418C118.752 118.47 118.436 117.493 117.85 116.486C117.264 115.479 116.564 114.709 115.749 114.175C114.935 113.641 113.995 113.41 112.93 113.482C111.861 113.545 110.646 113.972 109.288 114.763L103.934 117.877L116.992 140.321L113.947 142.092ZM119.211 123.911L131.971 131.606L128.435 133.664L115.774 125.911L119.211 123.911ZM137.935 94.4805L140.98 92.709L150.666 109.358C151.666 111.077 152.154 112.847 152.129 114.669C152.108 116.478 151.591 118.198 150.578 119.828C149.561 121.45 148.066 122.834 146.093 123.982C144.12 125.13 142.178 125.745 140.265 125.828C138.347 125.903 136.593 125.505 135.002 124.634C133.414 123.75 132.12 122.449 131.12 120.73L121.434 104.081L124.478 102.309L134.022 118.713C134.736 119.94 135.642 120.876 136.739 121.519C137.832 122.155 139.037 122.456 140.355 122.423C141.676 122.378 143.036 121.948 144.436 121.133C145.835 120.319 146.881 119.349 147.574 118.223C148.262 117.089 148.595 115.892 148.575 114.633C148.558 113.361 148.192 112.111 147.478 110.884L137.935 94.4805ZM161.69 114.316L147.06 89.1714L150.105 87.3999L163.163 109.844L174.851 103.043L176.423 105.745L161.69 114.316ZM181.138 103.002L166.508 77.8567L181.684 69.0277L183.255 71.7289L171.125 78.7863L176.068 87.2825L187.413 80.6823L188.984 83.3834L177.639 89.9836L182.611 98.529L194.938 91.3573L196.509 94.0584L181.138 103.002ZM204.58 64.1207C203.709 62.9622 202.55 62.344 201.102 62.266C199.654 62.188 198.169 62.5919 196.647 63.4776C195.534 64.1253 194.664 64.872 194.039 65.7179C193.422 66.559 193.063 67.4304 192.963 68.3321C192.872 69.2291 193.059 70.0786 193.526 70.8808C193.916 71.552 194.412 72.0361 195.012 72.3334C195.616 72.6176 196.264 72.7717 196.957 72.7957C197.646 72.8115 198.328 72.7598 199.003 72.6406C199.674 72.5132 200.279 72.3752 200.817 72.2265L203.77 71.4283C204.525 71.2192 205.392 71.0328 206.37 70.869C207.357 70.7004 208.371 70.6637 209.412 70.759C210.457 70.8413 211.457 71.1471 212.411 71.6765C213.365 72.2059 214.185 73.0599 214.871 74.2386C215.662 75.5973 216.02 77.0322 215.946 78.5433C215.88 80.0497 215.356 81.5215 214.373 82.9586C213.399 84.391 211.946 85.6691 210.014 86.7929C208.214 87.8406 206.485 88.4572 204.829 88.6428C203.182 88.8235 201.679 88.6132 200.321 88.0118C198.971 87.4057 197.847 86.4436 196.949 85.1256L200.092 83.297C200.726 84.1988 201.503 84.7989 202.421 85.0971C203.343 85.3824 204.322 85.4265 205.358 85.2293C206.397 85.0192 207.416 84.6237 208.414 84.0427C209.577 83.3665 210.511 82.5711 211.216 81.6564C211.918 80.7336 212.341 79.7754 212.486 78.7817C212.626 77.7798 212.429 76.8205 211.896 75.9038C211.41 75.0689 210.782 74.5253 210.01 74.2728C209.239 74.0204 208.377 73.952 207.426 74.0674C206.474 74.1829 205.485 74.375 204.458 74.6437L200.85 75.5598C198.557 76.1379 196.532 76.2365 194.777 75.8555C193.021 75.4745 191.651 74.4368 190.665 72.7425C189.846 71.3346 189.512 69.8854 189.664 68.3948C189.819 66.8913 190.374 65.4727 191.329 64.1392C192.288 62.7927 193.569 61.6527 195.174 60.7193C196.794 59.7765 198.404 59.2289 200.002 59.0767C201.596 58.9163 203.052 59.1211 204.37 59.6911C205.696 60.2563 206.748 61.1614 207.527 62.4063L204.58 64.1207Z" fill="black"/>
<path d="M117.874 178.465L128.845 197.324L126.562 198.653L116.983 182.188L116.872 182.253L114.047 187.988L112.697 185.668L115.59 179.794L117.874 178.465ZM138.353 191.99C137.899 192.254 137.415 192.318 136.9 192.182C136.385 192.046 135.996 191.751 135.732 191.297C135.467 190.842 135.403 190.358 135.539 189.843C135.675 189.329 135.971 188.939 136.425 188.675C136.879 188.41 137.364 188.346 137.878 188.482C138.393 188.619 138.782 188.914 139.047 189.368C139.222 189.669 139.306 189.99 139.299 190.331C139.298 190.668 139.216 190.987 139.054 191.287C138.894 191.577 138.66 191.811 138.353 191.99ZM153.537 182.959L151.143 184.352L147.096 161.465L149.453 160.093L167.349 174.923L164.955 176.316L150.084 163.72L149.936 163.805L153.537 182.959ZM150.135 175.078L159.785 169.464L160.964 171.49L151.314 177.104L150.135 175.078ZM161.194 153.263L172.165 172.122L169.992 173.386L159.02 154.527L161.194 153.263ZM174.068 152.083L175.14 153.925L167.81 158.189L166.738 156.347L174.068 152.083ZM166.903 151.716L169.076 150.452L176.919 163.933C177.276 164.547 177.633 164.955 177.99 165.159C178.349 165.352 178.7 165.419 179.043 165.359C179.389 165.29 179.721 165.162 180.041 164.976C180.28 164.837 180.469 164.71 180.609 164.596C180.744 164.476 180.853 164.38 180.934 164.308L182.512 166.004C182.397 166.144 182.223 166.319 181.991 166.528C181.763 166.743 181.446 166.969 181.041 167.204C180.427 167.561 179.749 167.779 179.006 167.858C178.269 167.934 177.55 167.814 176.849 167.498C176.154 167.18 175.568 166.609 175.089 165.786L166.903 151.716ZM182.329 143.678L181.151 141.652L195.295 133.423L196.473 135.449L190.543 138.899L200.336 155.732L198.052 157.061L188.259 140.228L182.329 143.678ZM213.547 148.441C212.184 149.234 210.833 149.617 209.495 149.59C208.159 149.554 206.908 149.148 205.742 148.372C204.578 147.587 203.575 146.469 202.732 145.021C201.889 143.572 201.41 142.141 201.295 140.729C201.183 139.307 201.422 138.01 202.013 136.836C202.606 135.653 203.541 134.69 204.818 133.947C205.555 133.518 206.354 133.218 207.215 133.045C208.076 132.873 208.962 132.892 209.873 133.101C210.78 133.305 211.671 133.756 212.546 134.455C213.421 135.154 214.242 136.163 215.01 137.483L215.546 138.404L204.643 144.747L203.55 142.868L212.243 137.811C211.779 137.013 211.205 136.394 210.521 135.953C209.844 135.509 209.108 135.276 208.314 135.253C207.527 135.226 206.74 135.442 205.954 135.899C205.088 136.402 204.465 137.053 204.082 137.851C203.702 138.639 203.542 139.471 203.601 140.349C203.66 141.227 203.916 142.056 204.369 142.835L205.098 144.088C205.719 145.156 206.43 145.954 207.231 146.483C208.034 147.002 208.879 147.262 209.767 147.263C210.652 147.258 211.533 147 212.411 146.489C212.982 146.157 213.451 145.777 213.819 145.349C214.189 144.912 214.448 144.433 214.596 143.911C214.741 143.383 214.763 142.82 214.661 142.222L217.104 141.59C217.297 142.43 217.29 143.272 217.082 144.116C216.871 144.954 216.469 145.746 215.877 146.494C215.281 147.235 214.504 147.884 213.547 148.441ZM215.55 127.95L222.303 131.761L222.327 124.007L224.832 122.55L224.379 132.279L233.061 136.694L230.556 138.151L223.974 134.634L223.778 142.094L221.274 143.551L221.653 133.865L213.045 129.407L215.55 127.95ZM234.084 117.167L235.155 119.009L227.825 123.273L226.754 121.431L234.084 117.167ZM226.919 116.8L229.092 115.536L236.935 129.017C237.292 129.631 237.649 130.039 238.006 130.243C238.365 130.436 238.716 130.503 239.059 130.443C239.405 130.374 239.737 130.246 240.057 130.06C240.296 129.921 240.485 129.794 240.624 129.68C240.76 129.56 240.869 129.464 240.95 129.392L242.528 131.087C242.412 131.228 242.239 131.403 242.007 131.612C241.779 131.827 241.462 132.052 241.057 132.288C240.443 132.645 239.765 132.863 239.022 132.942C238.285 133.018 237.566 132.898 236.865 132.582C236.17 132.264 235.583 131.693 235.105 130.87L226.919 116.8ZM176.489 211.649C175.212 212.392 173.915 212.74 172.598 212.693C171.287 212.643 170.043 212.228 168.867 211.45C167.697 210.668 166.687 209.546 165.837 208.085C164.98 206.612 164.499 205.17 164.394 203.761C164.295 202.348 164.547 201.058 165.151 199.894C165.761 198.725 166.705 197.769 167.982 197.027C169.259 196.284 170.553 195.938 171.864 195.988C173.182 196.035 174.427 196.453 175.6 197.241C176.78 198.025 177.798 199.154 178.655 200.628C179.505 202.089 179.978 203.523 180.074 204.93C180.175 206.333 179.921 207.619 179.311 208.788C178.707 209.953 177.766 210.907 176.489 211.649ZM175.354 209.697C176.324 209.133 176.977 208.42 177.314 207.559C177.651 206.697 177.734 205.774 177.563 204.788C177.393 203.803 177.032 202.837 176.482 201.892C175.932 200.947 175.269 200.153 174.493 199.512C173.718 198.87 172.87 198.48 171.951 198.341C171.032 198.202 170.088 198.414 169.118 198.979C168.148 199.543 167.496 200.259 167.163 201.127C166.83 201.994 166.75 202.924 166.924 203.915C167.098 204.907 167.46 205.875 168.01 206.821C168.56 207.766 169.222 208.557 169.994 209.192C170.766 209.827 171.61 210.211 172.525 210.344C173.441 210.477 174.384 210.262 175.354 209.697ZM183.267 195.923L188.217 204.432L186.044 205.696L177.815 191.552L179.915 190.331L181.201 192.541L181.385 192.434C181.299 191.522 181.466 190.652 181.888 189.824C182.306 188.989 183.049 188.261 184.117 187.639C185.075 187.082 186.027 186.791 186.974 186.766C187.917 186.735 188.819 186.999 189.679 187.559C190.535 188.113 191.313 188.991 192.013 190.194L197.242 199.182L195.068 200.446L189.926 191.606C189.279 190.495 188.487 189.797 187.549 189.513C186.608 189.222 185.634 189.37 184.627 189.956C183.933 190.359 183.401 190.87 183.029 191.489C182.664 192.104 182.493 192.791 182.515 193.551C182.538 194.31 182.789 195.101 183.267 195.923ZM208.506 192.628L200.277 178.484L202.45 177.22L210.679 191.364L208.506 192.628ZM200.011 175.484C199.587 175.731 199.138 175.799 198.663 175.689C198.194 175.575 197.842 175.316 197.606 174.911C197.371 174.506 197.319 174.071 197.452 173.608C197.591 173.141 197.873 172.784 198.296 172.537C198.72 172.291 199.166 172.225 199.635 172.338C200.11 172.448 200.465 172.706 200.7 173.111C200.936 173.516 200.985 173.952 200.845 174.419C200.712 174.883 200.434 175.238 200.011 175.484ZM214.659 189.048L206.431 174.904L208.53 173.683L209.816 175.893L210 175.786C209.855 174.859 209.99 173.996 210.404 173.197C210.815 172.391 211.48 171.72 212.401 171.184C213.334 170.642 214.234 170.402 215.1 170.464C215.969 170.518 216.799 170.82 217.588 171.371L217.735 171.286C217.672 170.344 217.878 169.448 218.352 168.597C218.823 167.74 219.565 167.016 220.578 166.427C221.843 165.691 223.107 165.486 224.372 165.81C225.634 166.128 226.748 167.118 227.716 168.782L233.224 178.248L231.05 179.513L225.543 170.046C224.936 169.003 224.217 168.423 223.385 168.307C222.553 168.191 221.751 168.358 220.977 168.808C219.983 169.387 219.387 170.136 219.191 171.055C218.991 171.968 219.157 172.882 219.689 173.797L225.046 183.005L222.836 184.291L217.201 174.604C216.733 173.8 216.095 173.304 215.288 173.116C214.476 172.923 213.66 173.065 212.837 173.544C212.272 173.872 211.832 174.33 211.516 174.916C211.206 175.499 211.056 176.145 211.065 176.854C211.078 177.554 211.286 178.25 211.69 178.944L216.833 187.784L214.659 189.048ZM241.552 173.847C240.656 174.368 239.744 174.672 238.817 174.76C237.887 174.841 237.019 174.684 236.214 174.29C235.406 173.889 234.734 173.228 234.198 172.307C233.727 171.497 233.504 170.747 233.531 170.058C233.553 169.363 233.748 168.716 234.114 168.117C234.48 167.517 234.945 166.96 235.507 166.443C236.072 165.917 236.658 165.42 237.265 164.952C238.06 164.342 238.709 163.854 239.211 163.488C239.715 163.112 240.049 162.782 240.212 162.498C240.382 162.21 240.365 161.892 240.161 161.542L240.119 161.468C239.59 160.559 238.931 159.998 238.141 159.784C237.357 159.566 236.464 159.749 235.464 160.331C234.426 160.934 233.745 161.635 233.42 162.432C233.095 163.229 232.963 163.955 233.023 164.61L230.532 165.073C230.4 164 230.502 163.045 230.837 162.209C231.175 161.363 231.654 160.633 232.274 160.017C232.896 159.392 233.563 158.873 234.276 158.458C234.73 158.194 235.284 157.946 235.937 157.713C236.594 157.471 237.294 157.355 238.04 157.365C238.791 157.372 239.546 157.602 240.303 158.057C241.061 158.512 241.767 159.301 242.42 160.425L247.842 169.744L245.669 171.008L244.554 169.093L244.444 169.157C244.475 169.549 244.421 170.021 244.28 170.571C244.14 171.121 243.856 171.684 243.428 172.262C243 172.84 242.375 173.368 241.552 173.847ZM240.748 171.702C241.607 171.202 242.233 170.611 242.626 169.931C243.025 169.247 243.22 168.55 243.21 167.841C243.206 167.128 243.033 166.477 242.69 165.888L241.533 163.899C241.505 164.063 241.361 164.282 241.102 164.556C240.845 164.821 240.534 165.105 240.168 165.408C239.804 165.702 239.447 165.984 239.095 166.254C238.745 166.515 238.463 166.729 238.247 166.895C237.725 167.297 237.267 167.724 236.872 168.176C236.48 168.617 236.228 169.089 236.117 169.589C236.008 170.08 236.114 170.601 236.436 171.154C236.875 171.909 237.486 172.317 238.27 172.379C239.056 172.431 239.882 172.205 240.748 171.702ZM260.775 169.713C259.725 170.324 258.744 170.714 257.832 170.883C256.923 171.058 256.09 171.074 255.333 170.931C254.586 170.791 253.922 170.561 253.342 170.241L254.366 168.019C254.712 168.162 255.132 168.312 255.626 168.469C256.123 168.631 256.704 168.684 257.369 168.626C258.043 168.57 258.807 168.294 259.661 167.798C260.802 167.133 261.584 166.309 262.005 165.324C262.427 164.34 262.295 163.258 261.609 162.079L259.937 159.206L259.753 159.313C259.744 159.664 259.702 160.116 259.629 160.668C259.558 161.21 259.335 161.787 258.961 162.4C258.588 163.003 257.942 163.572 257.021 164.108C255.879 164.772 254.697 165.098 253.474 165.087C252.257 165.071 251.085 164.702 249.957 163.978C248.835 163.25 247.845 162.149 246.988 160.676C246.145 159.227 245.666 157.817 245.551 156.447C245.432 155.07 245.655 153.822 246.221 152.704C246.783 151.58 247.659 150.672 248.85 149.979C249.771 149.443 250.591 149.172 251.31 149.164C252.031 149.147 252.648 149.248 253.162 149.467C253.678 149.676 254.087 149.857 254.39 150.01L254.611 149.881L253.304 147.635L255.403 146.413L263.868 160.962C264.575 162.178 264.874 163.327 264.764 164.41C264.664 165.495 264.254 166.485 263.534 167.381C262.824 168.278 261.904 169.056 260.775 169.713ZM256.18 161.984C257.051 161.477 257.672 160.849 258.041 160.1C258.411 159.351 258.534 158.511 258.412 157.58C258.289 156.649 257.924 155.661 257.317 154.618C256.724 153.598 256.047 152.788 255.287 152.187C254.526 151.586 253.717 151.24 252.858 151.148C251.999 151.056 251.128 151.267 250.244 151.781C249.323 152.317 248.691 152.997 248.349 153.82C248.013 154.64 247.919 155.533 248.07 156.497C248.226 157.458 248.583 158.417 249.14 159.375C249.711 160.357 250.37 161.136 251.116 161.713C251.865 162.28 252.669 162.601 253.526 162.677C254.387 162.744 255.271 162.513 256.18 161.984ZM273.712 155.087C272.349 155.88 270.998 156.263 269.66 156.237C268.324 156.201 267.073 155.794 265.907 155.019C264.743 154.233 263.74 153.116 262.897 151.667C262.054 150.218 261.575 148.788 261.46 147.376C261.348 145.954 261.587 144.656 262.178 143.482C262.771 142.299 263.706 141.336 264.983 140.593C265.72 140.164 266.519 139.864 267.38 139.692C268.241 139.519 269.127 139.538 270.038 139.748C270.945 139.951 271.836 140.402 272.711 141.101C273.586 141.8 274.407 142.809 275.175 144.129L275.711 145.05L264.808 151.393L263.715 149.515L272.408 144.457C271.944 143.659 271.37 143.04 270.686 142.6C270.009 142.156 269.273 141.922 268.479 141.899C267.692 141.873 266.905 142.088 266.119 142.545C265.253 143.049 264.63 143.699 264.247 144.497C263.867 145.285 263.707 146.118 263.766 146.996C263.825 147.873 264.081 148.702 264.534 149.482L265.263 150.734C265.884 151.802 266.595 152.601 267.396 153.129C268.199 153.648 269.044 153.908 269.932 153.909C270.817 153.904 271.698 153.646 272.576 153.135C273.147 152.803 273.616 152.423 273.984 151.996C274.354 151.559 274.613 151.079 274.761 150.557C274.906 150.029 274.928 149.466 274.826 148.868L277.269 148.236C277.462 149.077 277.455 149.919 277.247 150.763C277.036 151.6 276.634 152.393 276.042 153.14C275.446 153.881 274.669 154.53 273.712 155.087ZM286.335 132.657L284.705 134.345C284.393 134.091 284.028 133.881 283.61 133.713C283.194 133.536 282.725 133.464 282.202 133.497C281.679 133.53 281.101 133.73 280.469 134.098C279.603 134.602 278.998 135.221 278.653 135.956C278.311 136.681 278.316 137.347 278.67 137.955C278.984 138.495 279.429 138.807 280.004 138.892C280.579 138.976 281.345 138.88 282.301 138.603L284.701 137.897C286.144 137.469 287.359 137.39 288.347 137.662C289.332 137.927 290.111 138.554 290.686 139.542C291.158 140.353 291.346 141.213 291.251 142.123C291.162 143.029 290.81 143.907 290.196 144.758C289.581 145.608 288.724 146.353 287.626 146.993C286.183 147.832 284.807 148.213 283.497 148.137C282.187 148.061 281.057 147.495 280.105 146.438L281.868 144.722C282.507 145.369 283.211 145.724 283.978 145.787C284.752 145.846 285.584 145.617 286.474 145.099C287.487 144.509 288.167 143.827 288.512 143.05C288.86 142.265 288.857 141.568 288.504 140.96C288.218 140.469 287.807 140.158 287.27 140.026C286.73 139.888 286.056 139.944 285.247 140.192L282.568 141.011C281.094 141.458 279.866 141.536 278.883 141.245C277.903 140.944 277.129 140.306 276.561 139.33C276.097 138.532 275.91 137.695 276.001 136.821C276.098 135.942 276.435 135.102 277.011 134.298C277.593 133.491 278.382 132.798 279.376 132.22C280.776 131.405 282.053 131.073 283.208 131.223C284.37 131.369 285.412 131.847 286.335 132.657Z" fill="black"/>
<defs>
<linearGradient id="paint0_linear_2_2" x1="51.3322" y1="92.1765" x2="323.816" y2="255.942" gradientUnits="userSpaceOnUse">
<stop stop-color="#79421C"/>
<stop offset="1" stop-color="#2E0E04"/>
</linearGradient>
<linearGradient id="paint1_linear_2_2" x1="72.1292" y1="132.983" x2="343.947" y2="227.616" gradientUnits="userSpaceOnUse">
<stop offset="0.0051" stop-color="white"/>
<stop offset="0.2182" stop-color="#EEEEEE"/>
<stop offset="0.7276" stop-color="#CACACA"/>
<stop offset="1" stop-color="#BDBDBD"/>
</linearGradient>
<linearGradient id="paint2_linear_2_2" x1="141.893" y1="76.0826" x2="109.679" y2="22.2268" gradientUnits="userSpaceOnUse">
<stop offset="0.0051" stop-color="#212121"/>
<stop offset="0.0496" stop-color="#333339"/>
<stop offset="0.1264" stop-color="#4F4F5C"/>
<stop offset="0.1675" stop-color="#59596A"/>
<stop offset="0.3415" stop-color="#70707F"/>
<stop offset="0.7047" stop-color="#ABABB3"/>
<stop offset="1" stop-color="#E0E0E2"/>
</linearGradient>
<linearGradient id="paint3_linear_2_2" x1="117.621" y1="37.4511" x2="98.9179" y2="29.398" gradientUnits="userSpaceOnUse">
<stop offset="0.0051" stop-color="#DBDBDB"/>
<stop offset="0.051" stop-color="#D0D0D0"/>
<stop offset="0.3962" stop-color="#808080"/>
<stop offset="0.6801" stop-color="#464646"/>
<stop offset="0.8889" stop-color="#222222"/>
<stop offset="1" stop-color="#141414"/>
</linearGradient>
</defs>
</svg>
